<svg xmlns="http://www.w3.org/2000/svg" viewBox="0 0 24 24" fill="none" stroke="currentColor" stroke-width="1.5" stroke-linecap="round" stroke-linejoin="round">
  <!-- Gorgoneion (Medusa head - apotropaic symbol) -->
  <!-- Face -->
  <circle cx="12" cy="12" r="7"/>
  <!-- Eyes (wide, staring) -->
  <circle cx="9" cy="10" r="1.5"/>
  <circle cx="15" cy="10" r="1.5"/>
  <circle cx="9" cy="10" r="0.5" fill="currentColor"/>
  <circle cx="15" cy="10" r="0.5" fill="currentColor"/>
  <!-- Nose -->
  <path d="M12 10 L11 13 L13 13"/>
  <!-- Grimacing mouth with fangs -->
  <path d="M8 15 C10 17 14 17 16 15"/>
  <path d="M9 15 L9 16.5"/>
  <path d="M15 15 L15 16.5"/>
  <!-- Serpent hair -->
  <path d="M6 8 C4 6 3 7 4 9"/>
  <path d="M7 6 C6 4 4 4 5 6"/>
  <path d="M10 5 C10 3 8 2 9 4"/>
  <path d="M14 5 C14 3 16 2 15 4"/>
  <path d="M17 6 C18 4 20 4 19 6"/>
  <path d="M18 8 C20 6 21 7 20 9"/>
  <!-- Tongue -->
  <path d="M12 17 L12 19 L11 20 M12 19 L13 20"/>
</svg>
