<svg xmlns="http://www.w3.org/2000/svg" viewBox="0 0 24 24" fill="none" stroke="currentColor" stroke-width="1.5" stroke-linecap="round" stroke-linejoin="round">
  <!-- Helmet dome -->
  <path d="M5 14 C5 8 7 4 12 4 C17 4 19 8 19 14"/>
  <!-- Crest -->
  <path d="M12 2 C12 4 12 4 12 4"/>
  <path d="M10 4 C10 3 11 2 12 2 C13 2 14 3 14 4"/>
  <!-- Face opening -->
  <path d="M8 14 L8 18 C8 20 10 21 12 21 C14 21 16 20 16 18 L16 14"/>
  <!-- Nose guard -->
  <path d="M12 10 L12 17"/>
  <!-- Eye slots -->
  <path d="M8 12 L11 12"/>
  <path d="M13 12 L16 12"/>
  <!-- Cheek guards -->
  <path d="M5 14 C5 17 6 19 8 20"/>
  <path d="M19 14 C19 17 18 19 16 20"/>
</svg>
