<svg xmlns="http://www.w3.org/2000/svg" viewBox="0 0 24 24" fill="none" stroke="currentColor" stroke-width="1.5" stroke-linecap="round" stroke-linejoin="round">
  <!-- Main branch -->
  <path d="M3 21 C8 16 14 10 21 3"/>
  <!-- Leaves (pairs) -->
  <ellipse cx="7" cy="15" rx="2" ry="1" transform="rotate(-35 7 15)"/>
  <ellipse cx="9" cy="17" rx="2" ry="1" transform="rotate(-55 9 17)"/>
  <ellipse cx="10" cy="12" rx="2" ry="1" transform="rotate(-35 10 12)"/>
  <ellipse cx="12" cy="14" rx="2" ry="1" transform="rotate(-55 12 14)"/>
  <ellipse cx="14" cy="9" rx="2" ry="1" transform="rotate(-35 14 9)"/>
  <ellipse cx="16" cy="11" rx="2" ry="1" transform="rotate(-55 16 11)"/>
  <ellipse cx="17" cy="6" rx="2" ry="1" transform="rotate(-35 17 6)"/>
  <!-- Olives -->
  <circle cx="6" cy="18" r="1"/>
  <circle cx="13" cy="11" r="1"/>
</svg>
