<svg xmlns="http://www.w3.org/2000/svg" viewBox="0 0 24 24" fill="none" stroke="currentColor" stroke-width="1.5" stroke-linecap="round" stroke-linejoin="round">
  <!-- Serpent body in S-curve -->
  <path d="M4 4 C4 4 6 3 8 4 C12 6 10 10 6 11 C2 12 2 16 6 18 C10 20 14 18 16 14 C18 10 22 10 22 14"/>
  <!-- Head detail -->
  <circle cx="5" cy="4" r="1.5" fill="currentColor"/>
  <!-- Eye -->
  <circle cx="5" cy="4" r="0.5" fill="none" stroke="currentColor" stroke-width="1"/>
  <!-- Tongue -->
  <path d="M3 4 L1 3 M3 4 L1 5"/>
  <!-- Scale suggestions -->
  <path d="M8 8 C9 8 9 9 8 9"/>
  <path d="M6 14 C7 14 7 15 6 15"/>
  <path d="M12 16 C13 16 13 17 12 17"/>
</svg>
