<svg xmlns="http://www.w3.org/2000/svg" viewBox="0 0 24 24" fill="none" stroke="currentColor" stroke-width="1.5" stroke-linecap="round" stroke-linejoin="round">
  <!-- Central spine -->
  <path d="M12 22 C12 18 12 12 12 4"/>
  <!-- Left lobes -->
  <path d="M12 6 C10 5 7 6 5 8 C7 7 9 7 10 8"/>
  <path d="M12 10 C10 9 6 10 4 13 C6 11 9 11 10 12"/>
  <path d="M12 15 C10 14 6 15 3 18 C6 16 9 16 11 17"/>
  <!-- Right lobes -->
  <path d="M12 6 C14 5 17 6 19 8 C17 7 15 7 14 8"/>
  <path d="M12 10 C14 9 18 10 20 13 C18 11 15 11 14 12"/>
  <path d="M12 15 C14 14 18 15 21 18 C18 16 15 16 13 17"/>
  <!-- Tip curl -->
  <path d="M12 4 C11 3 10 3 9 4"/>
</svg>
