<svg xmlns="http://www.w3.org/2000/svg" viewBox="0 0 24 24" fill="none" stroke="currentColor" stroke-width="1.5" stroke-linecap="round" stroke-linejoin="round">
  <!-- Corinthian helmet with proper crest-box -->
  <!-- Helmet dome -->
  <path d="M5 14 C5 8 7 4 12 4 C17 4 19 8 19 14"/>
  <!-- Raised crest-box/holder -->
  <path d="M9 4 L9 2 L15 2 L15 4"/>
  <path d="M10 2 L10 1 C11 0 13 0 14 1 L14 2"/>
  <!-- Face opening -->
  <path d="M8 14 L8 18 C8 20 10 21 12 21 C14 21 16 20 16 18 L16 14"/>
  <!-- Nose guard (nasal) -->
  <path d="M12 9 L12 17"/>
  <!-- T-shaped face opening -->
  <path d="M8 11 L16 11"/>
  <!-- Cheek guards -->
  <path d="M5 14 C5 17 6 19 8 20"/>
  <path d="M19 14 C19 17 18 19 16 20"/>
</svg>
