<svg xmlns="http://www.w3.org/2000/svg" viewBox="0 0 24 24" fill="none" stroke="currentColor" stroke-width="1.5" stroke-linecap="round" stroke-linejoin="round">
  <!-- Left branch -->
  <path d="M12 20 C8 18 4 14 4 8"/>
  <path d="M4.5 16 C5.5 15 6 13.5 5.5 12"/>
  <path d="M5.5 13 C6.5 12 7 10.5 6.5 9"/>
  <path d="M6.5 10 C7.5 9 8 7.5 7.5 6"/>
  <path d="M7.5 7 C8.5 6 9 4.5 8.5 3"/>
  <!-- Right branch -->
  <path d="M12 20 C16 18 20 14 20 8"/>
  <path d="M19.5 16 C18.5 15 18 13.5 18.5 12"/>
  <path d="M18.5 13 C17.5 12 17 10.5 17.5 9"/>
  <path d="M17.5 10 C16.5 9 16 7.5 16.5 6"/>
  <path d="M16.5 7 C15.5 6 15 4.5 15.5 3"/>
  <!-- Ribbon tie -->
  <path d="M10 21 L12 20 L14 21"/>
</svg>
