<svg xmlns="http://www.w3.org/2000/svg" viewBox="0 0 24 24" fill="none" stroke="currentColor" stroke-width="1.5" stroke-linecap="round" stroke-linejoin="round">
  <!-- Thyrsus (Dionysian staff with pine cone and ivy) -->
  <!-- Staff -->
  <path d="M12 22 L12 8"/>
  <!-- Pine cone at top -->
  <ellipse cx="12" cy="5" rx="3" ry="4"/>
  <path d="M10 3 C11 4 13 4 14 3"/>
  <path d="M9.5 5 C11 6 13 6 14.5 5"/>
  <path d="M10 7 C11 8 13 8 14 7"/>
  <!-- Ivy leaves wrapping staff -->
  <path d="M12 12 C14 11 15 12 14 14"/>
  <path d="M12 15 C10 14 9 15 10 17"/>
  <path d="M12 18 C14 17 15 18 14 20"/>
  <!-- Ribbons -->
  <path d="M10 10 C8 11 7 10 8 8"/>
  <path d="M14 10 C16 11 17 10 16 8"/>
</svg>
