<svg xmlns="http://www.w3.org/2000/svg" viewBox="0 0 24 24" fill="none" stroke="currentColor" stroke-width="1.5" stroke-linecap="round" stroke-linejoin="round">
  <!-- Heraldic dragon/wyvern -->
  <!-- Head -->
  <path d="M4 8 C4 6 6 5 8 6 L10 8"/>
  <path d="M4 8 L2 7"/>
  <circle cx="6" cy="6.5" r="0.5" fill="currentColor"/>
  <!-- Neck -->
  <path d="M8 7 C10 8 11 10 11 12"/>
  <!-- Body -->
  <path d="M11 12 C12 14 14 16 18 16"/>
  <!-- Wing -->
  <path d="M10 10 C12 6 16 4 20 6"/>
  <path d="M12 8 L14 6 M14 8 L16 5 M16 8 L18 5"/>
  <!-- Tail -->
  <path d="M18 16 C20 16 22 14 22 12 L20 14"/>
  <!-- Legs -->
  <path d="M12 14 L10 18 L8 20 M10 18 L12 20"/>
  <path d="M16 16 L16 20 L14 22 M16 20 L18 22"/>
  <!-- Spines -->
  <path d="M8 6 L8 4 M9 7 L10 5"/>
</svg>
