<svg xmlns="http://www.w3.org/2000/svg" viewBox="0 0 24 24" fill="none" stroke="currentColor" stroke-width="1.5" stroke-linecap="round" stroke-linejoin="round">
  <!-- Heraldic eagle displayed (wings spread) -->
  <!-- Head -->
  <circle cx="12" cy="5" r="2"/>
  <path d="M12 5 L14 4"/>
  <!-- Body -->
  <path d="M12 7 L12 16"/>
  <ellipse cx="12" cy="12" rx="2" ry="4"/>
  <!-- Wings -->
  <path d="M10 8 C6 6 3 8 2 12 C3 11 5 10 7 11 C5 12 4 14 3 16 L10 12"/>
  <path d="M14 8 C18 6 21 8 22 12 C21 11 19 10 17 11 C19 12 20 14 21 16 L14 12"/>
  <!-- Tail feathers -->
  <path d="M12 16 L8 22"/>
  <path d="M12 16 L12 22"/>
  <path d="M12 16 L16 22"/>
  <!-- Legs -->
  <path d="M10 14 L8 18 M8 18 L6 19 M8 18 L8 20 M8 18 L10 19"/>
  <path d="M14 14 L16 18 M16 18 L14 19 M16 18 L16 20 M16 18 L18 19"/>
</svg>
