<svg xmlns="http://www.w3.org/2000/svg" viewBox="0 0 24 24" fill="none" stroke="currentColor" stroke-width="1.5" stroke-linecap="round" stroke-linejoin="round">
  <!-- Fleur-de-lis with proper medieval proportions -->
  <!-- Center petal (taller than sides) -->
  <path d="M12 1 C12 1 15 5 15 9 C15 11 14 12.5 12 13.5 C10 12.5 9 11 9 9 C9 5 12 1 12 1"/>
  <!-- Left petal (shorter, curved outward) -->
  <path d="M4 10 C3 8 5 5 8 6 C10 7 10.5 9 10 11 C9 10 7 9 5 10 C3 11 3 12 4 10"/>
  <!-- Right petal (shorter, curved outward) -->
  <path d="M20 10 C21 8 19 5 16 6 C14 7 13.5 9 14 11 C15 10 17 9 19 10 C21 11 21 12 20 10"/>
  <!-- Thin base band -->
  <path d="M9 14 L15 14"/>
  <!-- Stem -->
  <path d="M12 14 L12 22"/>
  <!-- Cross piece near bottom -->
  <path d="M10 19 L14 19"/>
</svg>
