<svg xmlns="http://www.w3.org/2000/svg" viewBox="0 0 24 24" fill="none" stroke="currentColor" stroke-width="1.5" stroke-linecap="round" stroke-linejoin="round">
  <!-- Manicule - proper orientation (pointing right, palm down) -->
  <!-- Ornate cuff with hatching -->
  <path d="M2 10 L2 18 L6 18 L6 10 Z"/>
  <path d="M2.5 11.5 L5.5 11.5"/>
  <path d="M2.5 13 L5.5 13"/>
  <path d="M2.5 14.5 L5.5 14.5"/>
  <path d="M2.5 16 L5.5 16"/>
  <!-- Wrist and back of hand -->
  <path d="M6 11 L9 11 L9 13"/>
  <path d="M6 17 L9 17 C10 17 10 16 10 15"/>
  <!-- Thumb (underneath, visible) -->
  <path d="M9 15 C10 15 11 14.5 11 14 C11 13.5 10.5 13 9 13"/>
  <!-- Index finger extended with fingernail -->
  <path d="M9 11.5 L19 11.5"/>
  <path d="M19 11.5 L21 11 L21.5 12 L21 13 L19 12.5 L9 12.5"/>
  <!-- Curled fingers (middle, ring, pinky) -->
  <path d="M9 13 C12 13 12 14 11.5 15 C11 16 10 16 9 15.5"/>
  <path d="M9 15.5 C11 15.5 11 16 10.5 16.5 C10 17 9 17 9 16.5"/>
</svg>
