<svg xmlns="http://www.w3.org/2000/svg" viewBox="0 0 24 24" fill="none" stroke="currentColor" stroke-width="1.5" stroke-linecap="round" stroke-linejoin="round">
  <!-- Heraldic raven/crow - simpler than eagle -->
  <!-- Head with thick beak -->
  <circle cx="7" cy="6" r="3"/>
  <path d="M4 6 L1 5 L1 7 L4 6"/>
  <!-- Eye -->
  <circle cx="7.5" cy="5.5" r="0.5" fill="currentColor"/>
  <!-- Body -->
  <ellipse cx="14" cy="12" rx="6" ry="4"/>
  <!-- Neck -->
  <path d="M10 7 C11 8 11 10 12 11"/>
  <!-- Wing -->
  <path d="M10 10 L8 14 L10 13 L9 16 L12 14 L11 17 L14 15"/>
  <!-- Tail -->
  <path d="M19 11 L22 10"/>
  <path d="M19 12 L23 12"/>
  <path d="M19 13 L22 14"/>
  <!-- Legs -->
  <path d="M12 16 L10 20 L8 21 M10 20 L10 22 M10 20 L12 21"/>
  <path d="M16 16 L16 20 L14 21 M16 20 L16 22 M16 20 L18 21"/>
</svg>
