<svg xmlns="http://www.w3.org/2000/svg" viewBox="0 0 24 24" fill="none" stroke="currentColor" stroke-width="1.5" stroke-linecap="round" stroke-linejoin="round">
  <!-- Heraldic eagle displayed - stylized, head to dexter -->
  <!-- Head turned to viewer's left (dexter) with hooked beak -->
  <circle cx="12" cy="4" r="2"/>
  <path d="M10 4 L8 3.5 L8 4.5 L10 4"/>
  <!-- Body -->
  <ellipse cx="12" cy="11" rx="2" ry="4"/>
  <!-- Wings - geometric feathers -->
  <!-- Left wing -->
  <path d="M10 8 L6 5 L4 6"/>
  <path d="M10 9 L5 7 L3 8"/>
  <path d="M10 10 L4 9 L2 11"/>
  <path d="M10 11 L4 11 L2 13"/>
  <path d="M10 12 L5 13 L3 15"/>
  <!-- Right wing -->
  <path d="M14 8 L18 5 L20 6"/>
  <path d="M14 9 L19 7 L21 8"/>
  <path d="M14 10 L20 9 L22 11"/>
  <path d="M14 11 L20 11 L22 13"/>
  <path d="M14 12 L19 13 L21 15"/>
  <!-- Legs with spread talons -->
  <path d="M10 14 L8 17"/>
  <path d="M8 17 L6 18 M8 17 L7 19 M8 17 L9 19"/>
  <path d="M14 14 L16 17"/>
  <path d="M16 17 L18 18 M16 17 L17 19 M16 17 L15 19"/>
  <!-- Tail feathers - symmetric, geometric -->
  <path d="M10 15 L8 21"/>
  <path d="M12 15 L12 22"/>
  <path d="M14 15 L16 21"/>
</svg>
