<svg xmlns="http://www.w3.org/2000/svg" viewBox="0 0 24 24" fill="none" stroke="currentColor" stroke-width="1.5" stroke-linecap="round" stroke-linejoin="round">
  <!-- Center petal -->
  <path d="M12 2 C12 2 14 5 14 8 C14 10 13 11 12 12 C11 11 10 10 10 8 C10 5 12 2 12 2"/>
  <!-- Left petal -->
  <path d="M4 8 C4 8 6 6 9 7 C11 8 11 10 10 12 C9 11 7 11 5 12 C3 13 3 10 4 8"/>
  <!-- Right petal -->
  <path d="M20 8 C20 8 18 6 15 7 C13 8 13 10 14 12 C15 11 17 11 19 12 C21 13 21 10 20 8"/>
  <!-- Base band -->
  <path d="M8 14 L16 14"/>
  <path d="M9 16 L15 16"/>
  <!-- Stem -->
  <path d="M12 16 L12 22"/>
  <path d="M10 20 L14 20"/>
</svg>
