<svg xmlns="http://www.w3.org/2000/svg" viewBox="0 0 24 24" fill="none" stroke="currentColor" stroke-width="1.5" stroke-linecap="round" stroke-linejoin="round">
  <!-- Heraldic lion rampant (standing on hind legs) -->
  <!-- Head -->
  <circle cx="16" cy="5" r="3"/>
  <path d="M18 4 L20 2"/>
  <path d="M17 3 L18 1"/>
  <!-- Mane -->
  <path d="M14 3 C13 4 13 6 14 7"/>
  <!-- Body -->
  <path d="M14 7 C12 8 10 10 10 14"/>
  <!-- Front legs (raised) -->
  <path d="M14 8 L18 6 L20 8"/>
  <path d="M13 10 L16 10 L17 12"/>
  <!-- Hind legs -->
  <path d="M10 14 L8 18 L6 20"/>
  <path d="M10 14 L12 18 L14 20"/>
  <!-- Tail -->
  <path d="M10 14 C6 14 4 10 6 8 C7 7 8 8 8 9"/>
  <!-- Tongue -->
  <path d="M18 6 L20 7" stroke-width="1"/>
</svg>
