<svg xmlns="http://www.w3.org/2000/svg" viewBox="0 0 24 24" fill="none" stroke="currentColor" stroke-width="1.5" stroke-linecap="round" stroke-linejoin="round">
  <!-- Shield with inescutcheon pattern (plessy = semé of escutcheons) -->
  <!-- Outer shield -->
  <path d="M4 3 L4 12 C4 18 12 22 12 22 C12 22 20 18 20 12 L20 3 L4 3 Z"/>
  <!-- Small escutcheons scattered -->
  <path d="M8 6 L8 8 C8 9 9 10 9 10 C9 10 10 9 10 8 L10 6 L8 6 Z"/>
  <path d="M14 6 L14 8 C14 9 15 10 15 10 C15 10 16 9 16 8 L16 6 L14 6 Z"/>
  <path d="M11 10 L11 12 C11 13 12 14 12 14 C12 14 13 13 13 12 L13 10 L11 10 Z"/>
  <path d="M7 13 L7 15 C7 16 8 17 8 17 C8 17 9 16 9 15 L9 13 L7 13 Z"/>
  <path d="M15 13 L15 15 C15 16 16 17 16 17 C16 17 17 16 17 15 L17 13 L15 13 Z"/>
</svg>
