<svg xmlns="http://www.w3.org/2000/svg" viewBox="0 0 24 24" fill="none" stroke="currentColor" stroke-width="1.5" stroke-linecap="round" stroke-linejoin="round">
  <!-- Woodcut-style sun with face -->
  <circle cx="12" cy="12" r="5"/>
  <!-- Face features -->
  <circle cx="10" cy="11" r="0.75" fill="currentColor"/>
  <circle cx="14" cy="11" r="0.75" fill="currentColor"/>
  <path d="M10 14 C11 15 13 15 14 14"/>
  <!-- Straight rays -->
  <path d="M12 2 L12 5"/>
  <path d="M12 19 L12 22"/>
  <path d="M2 12 L5 12"/>
  <path d="M19 12 L22 12"/>
  <!-- Diagonal rays -->
  <path d="M4.9 4.9 L7 7"/>
  <path d="M17 17 L19.1 19.1"/>
  <path d="M4.9 19.1 L7 17"/>
  <path d="M17 7 L19.1 4.9"/>
  <!-- Wavy rays between -->
  <path d="M7.8 3.5 C8.5 5 8 6 7.5 6.5"/>
  <path d="M16.2 3.5 C15.5 5 16 6 16.5 6.5"/>
</svg>
