<svg xmlns="http://www.w3.org/2000/svg" viewBox="0 0 24 24" fill="none" stroke="currentColor" stroke-width="1.5" stroke-linecap="round" stroke-linejoin="round">
  <!-- Agnus Dei (Lamb of God with banner) -->
  <!-- Lamb body -->
  <ellipse cx="12" cy="14" rx="6" ry="4"/>
  <!-- Head -->
  <circle cx="7" cy="11" r="2.5"/>
  <!-- Ear -->
  <path d="M5 9 C4 8 4 10 5 10"/>
  <!-- Eye -->
  <circle cx="6.5" cy="10.5" r="0.5" fill="currentColor"/>
  <!-- Legs -->
  <path d="M8 18 L7 22"/>
  <path d="M10 18 L10 22"/>
  <path d="M14 18 L14 22"/>
  <path d="M16 18 L17 22"/>
  <!-- Tail -->
  <path d="M18 13 C19 12 20 13 19 14"/>
  <!-- Banner staff -->
  <path d="M14 6 L14 14"/>
  <!-- Cross on staff -->
  <path d="M13 7 L15 7"/>
  <!-- Banner -->
  <path d="M14 2 L20 4 L20 7 L14 5"/>
  <!-- Cross on banner -->
  <path d="M16 3.5 L18 3.5 M17 3 L17 5"/>
  <!-- Halo -->
  <path d="M5 8 C6 7 8 7 9 8" stroke-dasharray="1 1"/>
</svg>
