<svg xmlns="http://www.w3.org/2000/svg" viewBox="0 0 24 24" fill="none" stroke="currentColor" stroke-width="1.5" stroke-linecap="round" stroke-linejoin="round">
  <!-- Heraldic wyvern (simplified for legibility) -->
  <!-- Head with open jaw -->
  <path d="M3 7 C3 5 5 4 7 5"/>
  <path d="M7 5 L9 7"/>
  <path d="M3 7 L5 8"/>
  <circle cx="5" cy="5.5" r="0.75" fill="currentColor"/>
  <!-- Neck and body curve -->
  <path d="M7 6 C9 7 10 9 10 12 C10 15 12 17 16 17"/>
  <!-- Wing (bat-like membrane) -->
  <path d="M9 9 C11 5 15 3 19 4"/>
  <path d="M9 9 L11 6 L13 5 L15 4 L17 4 L19 4"/>
  <!-- Tail with barbed end -->
  <path d="M16 17 C19 17 21 15 21 12"/>
  <path d="M21 12 L22 10 L20 12 L22 14 L21 12"/>
  <!-- Two legs (wyvern style) -->
  <path d="M11 14 L9 18 L7 20"/>
  <path d="M7 20 L6 19 M7 20 L8 21"/>
  <path d="M14 16 L14 20 L12 22"/>
  <path d="M12 22 L11 21 M12 22 L13 23"/>
</svg>
