<svg xmlns="http://www.w3.org/2000/svg" viewBox="0 0 24 24" fill="none" stroke="currentColor" stroke-width="1.5" stroke-linecap="round" stroke-linejoin="round">
  <!-- Heraldic rose (Tudor rose style) -->
  <!-- Five outer petals -->
  <path d="M12 3 C14 5 14 7 12 9 C10 7 10 5 12 3"/>
  <path d="M20 9 C18 11 16 11 14 9 C16 7 18 7 20 9"/>
  <path d="M18 18 C16 16 16 14 18 12 C20 14 20 16 18 18"/>
  <path d="M6 18 C8 16 8 14 6 12 C4 14 4 16 6 18"/>
  <path d="M4 9 C6 7 8 7 10 9 C8 11 6 11 4 9"/>
  <!-- Five inner petals (barbs) -->
  <path d="M12 7 L12 10"/>
  <path d="M15 9 L13 11"/>
  <path d="M15 14 L13 12"/>
  <path d="M9 14 L11 12"/>
  <path d="M9 9 L11 11"/>
  <!-- Center (seeds) -->
  <circle cx="12" cy="12" r="2"/>
  <circle cx="12" cy="12" r="0.75" fill="currentColor"/>
</svg>
