<svg xmlns="http://www.w3.org/2000/svg" viewBox="0 0 24 24" fill="none" stroke="currentColor" stroke-width="1.5" stroke-linecap="round" stroke-linejoin="round">
  <!-- Heraldic tower/castle -->
  <!-- Main tower body -->
  <path d="M6 22 L6 8 L18 8 L18 22"/>
  <!-- Crenellations (battlements) -->
  <path d="M6 8 L6 5 L8 5 L8 8"/>
  <path d="M10 8 L10 5 L14 5 L14 8"/>
  <path d="M16 8 L16 5 L18 5 L18 8"/>
  <!-- Door -->
  <path d="M10 22 L10 16 C10 15 11 14 12 14 C13 14 14 15 14 16 L14 22"/>
  <!-- Windows -->
  <path d="M8 11 L8 13 M8 12 L9 12"/>
  <path d="M16 11 L16 13 M15 12 L16 12"/>
  <!-- Base -->
  <path d="M4 22 L20 22"/>
</svg>
