<svg xmlns="http://www.w3.org/2000/svg" viewBox="0 0 24 24" fill="none" stroke="currentColor" stroke-width="1.5" stroke-linecap="round" stroke-linejoin="round">
  <!-- Manicule pointing left (mirrored) -->
  <!-- Ornate cuff with hatching -->
  <path d="M22 10 L22 18 L18 18 L18 10 Z"/>
  <path d="M21.5 11.5 L18.5 11.5"/>
  <path d="M21.5 13 L18.5 13"/>
  <path d="M21.5 14.5 L18.5 14.5"/>
  <path d="M21.5 16 L18.5 16"/>
  <!-- Wrist and back of hand -->
  <path d="M18 11 L15 11 L15 13"/>
  <path d="M18 17 L15 17 C14 17 14 16 14 15"/>
  <!-- Thumb (underneath, visible) -->
  <path d="M15 15 C14 15 13 14.5 13 14 C13 13.5 13.5 13 15 13"/>
  <!-- Index finger extended with fingernail -->
  <path d="M15 11.5 L5 11.5"/>
  <path d="M5 11.5 L3 11 L2.5 12 L3 13 L5 12.5 L15 12.5"/>
  <!-- Curled fingers (middle, ring, pinky) -->
  <path d="M15 13 C12 13 12 14 12.5 15 C13 16 14 16 15 15.5"/>
  <path d="M15 15.5 C13 15.5 13 16 13.5 16.5 C14 17 15 17 15 16.5"/>
</svg>
