<svg xmlns="http://www.w3.org/2000/svg" viewBox="0 0 24 24" fill="none" stroke="currentColor" stroke-width="1.5" stroke-linecap="round" stroke-linejoin="round">
  <!-- Printer's fist / index (ornate pointing hand) -->
  <!-- Ornate cuff -->
  <path d="M2 10 L2 18 L6 18 L6 10 L2 10"/>
  <path d="M3 12 L5 12"/>
  <path d="M3 14 L5 14"/>
  <path d="M3 16 L5 16"/>
  <!-- Hand -->
  <path d="M6 11 L8 11 C9 11 10 10 10 9 L18 9"/>
  <path d="M6 17 L8 17 C10 17 11 16 11 14 L11 13"/>
  <!-- Index finger pointing -->
  <path d="M18 9 L21 9 L22 10 L22 12 L21 13 L18 13"/>
  <!-- Curled fingers suggested -->
  <path d="M11 13 C12 13 13 14 13 15 L11 15"/>
  <path d="M11 15 C12 15 13 16 12 17 L8 17"/>
</svg>
