<svg xmlns="http://www.w3.org/2000/svg" viewBox="0 0 24 24" fill="none" stroke="currentColor" stroke-width="1.5" stroke-linecap="round" stroke-linejoin="round">
  <!-- Open book -->
  <path d="M2 4 C2 4 5 3 8 3 C11 3 12 4 12 4 L12 20 C12 20 11 19 8 19 C5 19 2 20 2 20 L2 4"/>
  <path d="M22 4 C22 4 19 3 16 3 C13 3 12 4 12 4 L12 20 C12 20 13 19 16 19 C19 19 22 20 22 20 L22 4"/>
  <!-- Page lines -->
  <path d="M5 8 L9 8"/>
  <path d="M5 12 L9 12"/>
  <path d="M15 8 L19 8"/>
  <path d="M15 12 L19 12"/>
  <!-- Binding detail -->
  <path d="M12 4 L12 2"/>
</svg>
