<svg xmlns="http://www.w3.org/2000/svg" viewBox="0 0 24 24" fill="none" stroke="currentColor" stroke-width="1.5" stroke-linecap="round" stroke-linejoin="round">
  <!-- Unfurled scroll -->
  <path d="M6 4 C4 4 3 5 3 6 C3 7 4 8 6 8 L18 8 L18 18 C18 19 17 20 16 20 L6 20 C4 20 3 19 3 18"/>
  <path d="M18 8 C20 8 21 7 21 6 C21 5 20 4 18 4 L6 4"/>
  <!-- Scroll curl at bottom -->
  <path d="M6 20 C4 20 3 19 3 18 L3 16 C3 17 4 18 6 18"/>
  <!-- Text lines suggestion -->
  <path d="M7 11 L15 11"/>
  <path d="M7 14 L13 14"/>
</svg>
