<svg xmlns="http://www.w3.org/2000/svg" viewBox="0 0 24 24" fill="none" stroke="currentColor" stroke-width="1.5" stroke-linecap="round" stroke-linejoin="round">
  <!-- Decorative fleuron flower -->
  <circle cx="12" cy="12" r="3"/>
  <path d="M12 2 C10 5 10 7 12 9 C14 7 14 5 12 2"/>
  <path d="M12 22 C10 19 10 17 12 15 C14 17 14 19 12 22"/>
  <path d="M2 12 C5 10 7 10 9 12 C7 14 5 14 2 12"/>
  <path d="M22 12 C19 10 17 10 15 12 C17 14 19 14 22 12"/>
  <!-- Diagonal petals -->
  <path d="M5 5 C7 6 8 8 9 10 C7 9 6 7 5 5"/>
  <path d="M19 5 C17 6 16 8 15 10 C17 9 18 7 19 5"/>
  <path d="M5 19 C7 18 8 16 9 14 C7 15 6 17 5 19"/>
  <path d="M19 19 C17 18 16 16 15 14 C17 15 18 17 19 19"/>
</svg>
