<svg xmlns="http://www.w3.org/2000/svg" viewBox="0 0 24 24" fill="none" stroke="currentColor" stroke-width="1.5" stroke-linecap="round" stroke-linejoin="round">
  <!-- Horizontal vine ornament divider -->
  <path d="M2 12 L22 12"/>
  <!-- Left flourish -->
  <path d="M4 12 C4 10 6 8 8 10 C9 11 9 12 8 12"/>
  <path d="M4 12 C4 14 6 16 8 14 C9 13 9 12 8 12"/>
  <!-- Right flourish -->
  <path d="M20 12 C20 10 18 8 16 10 C15 11 15 12 16 12"/>
  <path d="M20 12 C20 14 18 16 16 14 C15 13 15 12 16 12"/>
  <!-- Center leaf -->
  <path d="M12 12 C12 9 10 8 10 8 C12 8 12 10 12 12"/>
  <path d="M12 12 C12 15 14 16 14 16 C12 16 12 14 12 12"/>
</svg>
